<svg xmlns="http://www.w3.org/2000/svg" viewBox="0 0 180 180" fill="none" shape-rendering="auto"><metadata xmlns:rdf="http://www.w3.org/1999/02/22-rdf-syntax-ns#" xmlns:xsi="http://www.w3.org/2001/XMLSchema-instance" xmlns:dc="http://purl.org/dc/elements/1.1/" xmlns:dcterms="http://purl.org/dc/terms/"><rdf:RDF><rdf:Description><dc:title>Bottts</dc:title><dc:creator>Pablo Stanley</dc:creator><dc:source xsi:type="dcterms:URI">https://bottts.com/</dc:source><dcterms:license xsi:type="dcterms:URI">https://bottts.com/</dcterms:license><dc:rights>Remix of „Bottts” (https://bottts.com/) by „Pablo Stanley”, licensed under „Free for personal and commercial use” (https://bottts.com/)</dc:rights></rdf:Description></rdf:RDF></metadata><mask id="viewboxMask"><rect width="180" height="180" rx="0" ry="0" x="0" y="0" fill="#fff" /></mask><g mask="url(#viewboxMask)"><g transform="translate(0 66)"><mask id="sidesSquareAssymetric-a" style="mask-type:luminance" maskUnits="userSpaceOnUse" x="10" y="8" width="165" height="60"><g fill="#fff"><rect x="10" y="31" width="36" height="30" rx="4"/><rect x="20" y="15" width="26" height="30" rx="4"/><rect x="139" y="23" width="36" height="30" rx="4"/><rect x="134" y="8" width="36" height="60" rx="4"/></g></mask><g mask="url(#sidesSquareAssymetric-a)"><path d="M0 0h180v76H0V0Z" fill="#00acc1"/><path d="M0 0h180v76H0V0Z" fill="#fff" fill-opacity=".3"/><path fill="#000" fill-opacity=".1" d="M0 47h180v29H0z"/><circle cx="161" cy="20" r="5" fill="#fff" fill-opacity=".6"/><circle cx="161" cy="36" r="5" fill="#fff" fill-opacity=".6"/></g></g><g transform="translate(41)"><mask id="topBulb01-a" style="mask-type:luminance" maskUnits="userSpaceOnUse" x="22" y="0" width="56" height="52"><g fill="#fff"><path fill-rule="evenodd" clip-rule="evenodd" d="M32 16A16 16 0 0 1 48 0h4a16 16 0 0 1 16 16v16a8 8 0 0 1-8 8H40a8 8 0 0 1-8-8V16Z"/><rect x="22" y="40" width="56" height="12" rx="1"/></g></mask><g mask="url(#topBulb01-a)"><path d="M0 0h100v52H0V0Z" fill="#00acc1"/><path d="M0 0h100v52H0V0Z" fill="#fff" fill-opacity=".3"/><path fill="#fff" fill-opacity=".4" d="M20-3h60v43H20z"/><path d="M49 3.5c4.93 0 9.37 2.13 12.44 5.52" stroke="#fff" stroke-width="2" stroke-linecap="round"/><path d="m49.83 26-9-9L38 19.83l10 10V40h4V29.97l10.14-10.14L59.31 17l-9 9h-.48Z" fill="#fff" fill-opacity=".8"/></g></g><g transform="translate(25 44)"><mask id="faceSquare01-a" style="mask-type:luminance" maskUnits="userSpaceOnUse" x="0" y="0" width="130" height="120"><rect width="130" height="120" rx="18" fill="#fff"/></mask><g mask="url(#faceSquare01-a)"><path d="M-2-2h134v124H-2V-2Z" fill="#00acc1"/><g transform="translate(-1 -1)"></g></g></g><g transform="translate(52 124)"><path d="M27.05 8.44a2 2 0 1 1 3.9-.88C31.72 10.96 34.4 13 38 13c3.6 0 6.28-2.04 7.05-5.44a2 2 0 1 1 3.9.88C47.75 13.7 43.43 17 38 17s-9.76-3.3-10.95-8.56Z" fill="#000" fill-opacity=".6"/></g><g transform="translate(38 76)"><g fill-rule="evenodd" clip-rule="evenodd"><path d="M53 0c34.75 0 49 17.47 49 31 0 13.53-19.59 17-49 17-29.05 0-51-3.47-51-17S17.11 0 53 0Z" fill="#000" fill-opacity=".8"/><path d="M28.82 34.65c-6.53-1.35-11.24-6.34-10.52-11.14.72-4.79 6.6-7.58 13.12-6.23 6.53 1.36 11.24 6.35 10.52 11.15-.72 4.8-6.6 7.59-13.12 6.23ZM75.42 34.65c-6.52 1.36-12.4-1.43-13.12-6.23-.72-4.8 4-9.8 10.52-11.15 6.52-1.35 12.4 1.44 13.12 6.24.72 4.81-4 9.8-10.52 11.15Z" fill="#25A6F5"/></g></g></g></svg>