<svg xmlns="http://www.w3.org/2000/svg" viewBox="0 0 180 180" fill="none" shape-rendering="auto"><metadata xmlns:rdf="http://www.w3.org/1999/02/22-rdf-syntax-ns#" xmlns:xsi="http://www.w3.org/2001/XMLSchema-instance" xmlns:dc="http://purl.org/dc/elements/1.1/" xmlns:dcterms="http://purl.org/dc/terms/"><rdf:RDF><rdf:Description><dc:title>Bottts</dc:title><dc:creator>Pablo Stanley</dc:creator><dc:source xsi:type="dcterms:URI">https://bottts.com/</dc:source><dcterms:license xsi:type="dcterms:URI">https://bottts.com/</dcterms:license><dc:rights>Remix of „Bottts” (https://bottts.com/) by „Pablo Stanley”, licensed under „Free for personal and commercial use” (https://bottts.com/)</dc:rights></rdf:Description></rdf:RDF></metadata><mask id="viewboxMask"><rect width="180" height="180" rx="0" ry="0" x="0" y="0" fill="#fff" /></mask><g mask="url(#viewboxMask)"><g transform="translate(0 66)"><mask id="sidesAntenna02-a" style="mask-type:luminance" maskUnits="userSpaceOnUse" x="10" y="9" width="160" height="51"><g fill="#fff"><rect x="10" y="28" width="36" height="32" rx="4"/><path d="M160 9h2v20h-2z"/><rect x="134" y="28" width="36" height="32" rx="4"/></g></mask><g mask="url(#sidesAntenna02-a)"><path d="M0 0h180v76H0V0Z" fill="#fdd835"/><path d="M0 0h180v76H0V0Z" fill="#fff" fill-opacity=".3"/><path fill="#000" fill-opacity=".1" d="M0 38h180v38H0z"/></g><path fill="#fff" fill-opacity=".4" d="M160 8h2v20h-2z"/><circle cx="161" cy="5" r="4" fill="#E1E6E8"/><circle cx="162" cy="4" r="2" fill="#fff"/></g><g transform="translate(41)"><g filter="url(#topGlowingBulb02-a)"><path fill-rule="evenodd" clip-rule="evenodd" d="M30 33a20 20 0 1 1 40 0v11H30V33Z" fill="#fff" fill-opacity=".3"/></g><ellipse cx="50" cy="30" rx="4" ry="6" fill="#fff" fill-opacity=".6"/><path d="M50 15.5c4.93 0 9.37 2.13 12.44 5.52m2.43 3.5c.7 1.3 1.21 2.73 1.53 4.23" stroke="#fff" stroke-width="2" stroke-linecap="round"/><rect x="20" y="36" width="60" height="16" rx="1" fill="#48494B"/><defs><filter id="topGlowingBulb02-a" x="22" y="5" width="56" height="47" filterUnits="userSpaceOnUse" color-interpolation-filters="sRGB"><feFlood flood-opacity="0" result="BackgroundImageFix"/><feColorMatrix in="SourceAlpha" values="0 0 0 0 0 0 0 0 0 0 0 0 0 0 0 0 0 0 127 0" result="hardAlpha"/><feOffset/><feGaussianBlur stdDeviation="4"/><feColorMatrix values="0 0 0 0 1 0 0 0 0 1 0 0 0 0 1 0 0 0 0.5 0"/><feBlend in2="BackgroundImageFix" result="effect1_dropShadow_617_633"/><feBlend in="SourceGraphic" in2="effect1_dropShadow_617_633" result="shape"/><feColorMatrix in="SourceAlpha" values="0 0 0 0 0 0 0 0 0 0 0 0 0 0 0 0 0 0 127 0" result="hardAlpha"/><feOffset/><feGaussianBlur stdDeviation="2"/><feComposite in2="hardAlpha" operator="arithmetic" k2="-1" k3="1"/><feColorMatrix values="0 0 0 0 1 0 0 0 0 1 0 0 0 0 1 0 0 0 0.5 0"/><feBlend in2="shape" result="effect2_innerShadow_617_633"/></filter></defs></g><g transform="translate(25 44)"><mask id="faceSquare02-a" style="mask-type:luminance" maskUnits="userSpaceOnUse" x="0" y="0" width="130" height="120"><path d="M0 12A12 12 0 0 1 12 0h106a12 12 0 0 1 12 12v70a38 38 0 0 1-38 38H38A38 38 0 0 1 0 82V12Z" fill="#fff"/></mask><g mask="url(#faceSquare02-a)"><path d="M-2-2h134v124H-2V-2Z" fill="#fdd835"/><g transform="translate(-1 -1)"><g fill="#000"><path d="M27.3 65.2a2.1 2.1 0 1 0 0-4.2 2.1 2.1 0 0 0 0 4.2ZM35.7 69.41a2.1 2.1 0 1 1-4.2 0 2.1 2.1 0 0 1 4.2 0ZM35.7 82.03a2.1 2.1 0 1 1-4.2 0 2.1 2.1 0 0 1 4.2 0ZM35.7 94.66a2.1 2.1 0 1 1-4.2 0 2.1 2.1 0 0 1 4.2 0ZM34.1 109.2a2.1 2.1 0 1 0 0-4.2 2.1 2.1 0 0 0 0 4.2ZM49.2 107.1a2.1 2.1 0 1 1-4.2 0 2.1 2.1 0 0 1 4.2 0ZM27.3 90.45a2.1 2.1 0 1 0 0-4.2 2.1 2.1 0 0 0 0 4.2ZM29.2 101.1a2.1 2.1 0 1 1-4.2 0 2.1 2.1 0 0 1 4.2 0ZM51.1 103.2a2.1 2.1 0 1 0 0-4.2 2.1 2.1 0 0 0 0 4.2ZM42 88.34a2.1 2.1 0 1 1-4.2 0 2.1 2.1 0 0 1 4.2 0ZM39.9 103.07a2.1 2.1 0 1 0 0-4.2 2.1 2.1 0 0 0 0 4.2ZM29.4 75.72a2.1 2.1 0 1 1-4.2 0 2.1 2.1 0 0 1 4.2 0ZM39.9 77.83a2.1 2.1 0 1 0 0-4.2 2.1 2.1 0 0 0 0 4.2ZM10.5 94.66a2.1 2.1 0 1 1-4.2 0 2.1 2.1 0 0 1 4.2 0ZM8.4 84.14a2.1 2.1 0 1 0 0-4.2 2.1 2.1 0 0 0 0 4.2ZM10.5 107.28a2.1 2.1 0 1 1-4.2 0 2.1 2.1 0 0 1 4.2 0ZM2.1 90.45a2.1 2.1 0 1 0 0-4.2 2.1 2.1 0 0 0 0 4.2ZM4.2 100.97a2.1 2.1 0 1 1-4.2 0 2.1 2.1 0 0 1 4.2 0ZM14.7 90.45a2.1 2.1 0 1 0 0-4.2 2.1 2.1 0 0 0 0 4.2ZM16.8 100.97a2.1 2.1 0 1 1-4.2 0 2.1 2.1 0 0 1 4.2 0ZM8.4 71.52a2.1 2.1 0 1 0 0-4.2 2.1 2.1 0 0 0 0 4.2ZM4.2 75.72a2.1 2.1 0 1 1-4.2 0 2.1 2.1 0 0 1 4.2 0ZM14.7 65.2a2.1 2.1 0 1 0 0-4.2 2.1 2.1 0 0 0 0 4.2ZM16.8 75.72a2.1 2.1 0 1 1-4.2 0 2.1 2.1 0 0 1 4.2 0ZM21 96.76a2.1 2.1 0 1 0 0-4.2 2.1 2.1 0 0 0 0 4.2ZM23.1 82.03a2.1 2.1 0 1 1-4.2 0 2.1 2.1 0 0 1 4.2 0ZM21 109.38a2.1 2.1 0 1 0 0-4.2 2.1 2.1 0 0 0 0 4.2ZM35.7 119.9a2.1 2.1 0 1 1-4.2 0 2.1 2.1 0 0 1 4.2 0ZM27.3 115.69a2.1 2.1 0 1 0 0-4.2 2.1 2.1 0 0 0 0 4.2ZM42 113.59a2.1 2.1 0 1 1-4.2 0 2.1 2.1 0 0 1 4.2 0ZM8.4 122a2.1 2.1 0 1 0 0-4.2 2.1 2.1 0 0 0 0 4.2ZM4.2 113.59a2.1 2.1 0 1 1-4.2 0 2.1 2.1 0 0 1 4.2 0ZM14.7 115.69a2.1 2.1 0 1 0 0-4.2 2.1 2.1 0 0 0 0 4.2ZM23.1 119.9a2.1 2.1 0 1 1-4.2 0 2.1 2.1 0 0 1 4.2 0ZM21 71.52a2.1 2.1 0 1 0 0-4.2 2.1 2.1 0 0 0 0 4.2Z" fill-opacity=".2"/><path d="M117.3 4.2a2.1 2.1 0 1 0 0-4.2 2.1 2.1 0 0 0 0 4.2ZM125.7 8.41a2.1 2.1 0 1 1-4.2 0 2.1 2.1 0 0 1 4.2 0ZM125.7 21.03a2.1 2.1 0 1 1-4.2 0 2.1 2.1 0 0 1 4.2 0ZM125.7 33.66a2.1 2.1 0 1 1-4.2 0 2.1 2.1 0 0 1 4.2 0ZM123.6 48.38a2.1 2.1 0 1 0 0-4.2 2.1 2.1 0 0 0 0 4.2ZM119.4 27.34a2.1 2.1 0 1 1-4.2 0 2.1 2.1 0 0 1 4.2 0ZM117.3 42.07a2.1 2.1 0 1 0 0-4.2 2.1 2.1 0 0 0 0 4.2ZM132 27.34a2.1 2.1 0 1 1-4.2 0 2.1 2.1 0 0 1 4.2 0ZM129.9 42.07a2.1 2.1 0 1 0 0-4.2 2.1 2.1 0 0 0 0 4.2ZM119.4 14.72a2.1 2.1 0 1 1-4.2 0 2.1 2.1 0 0 1 4.2 0ZM129.9 16.83a2.1 2.1 0 1 0 0-4.2 2.1 2.1 0 0 0 0 4.2ZM100.5 33.66a2.1 2.1 0 1 1-4.2 0 2.1 2.1 0 0 1 4.2 0ZM98.4 23.14a2.1 2.1 0 1 0 0-4.2 2.1 2.1 0 0 0 0 4.2ZM100.5 46.28a2.1 2.1 0 1 1-4.2 0 2.1 2.1 0 0 1 4.2 0ZM92.1 29.45a2.1 2.1 0 1 0 0-4.2 2.1 2.1 0 0 0 0 4.2ZM106.8 27.34a2.1 2.1 0 1 1-4.2 0 2.1 2.1 0 0 1 4.2 0ZM104.7 42.07a2.1 2.1 0 1 0 0-4.2 2.1 2.1 0 0 0 0 4.2ZM100.5 8.41a2.1 2.1 0 1 1-4.2 0 2.1 2.1 0 0 1 4.2 0ZM92.1 16.83a2.1 2.1 0 1 0 0-4.2 2.1 2.1 0 0 0 0 4.2ZM106.8 2.1a2.1 2.1 0 1 1-4.2 0 2.1 2.1 0 0 1 4.2 0ZM104.7 16.83a2.1 2.1 0 1 0 0-4.2 2.1 2.1 0 0 0 0 4.2ZM113.1 33.66a2.1 2.1 0 1 1-4.2 0 2.1 2.1 0 0 1 4.2 0ZM111 23.14a2.1 2.1 0 1 0 0-4.2 2.1 2.1 0 0 0 0 4.2ZM113.1 46.28a2.1 2.1 0 1 1-4.2 0 2.1 2.1 0 0 1 4.2 0ZM123.6 61a2.1 2.1 0 1 0 0-4.2 2.1 2.1 0 0 0 0 4.2ZM132 52.59a2.1 2.1 0 1 1-4.2 0 2.1 2.1 0 0 1 4.2 0ZM104.7 54.69a2.1 2.1 0 1 0 0-4.2 2.1 2.1 0 0 0 0 4.2ZM113.1 58.9a2.1 2.1 0 1 1-4.2 0 2.1 2.1 0 0 1 4.2 0ZM111 10.52a2.1 2.1 0 1 0 0-4.2 2.1 2.1 0 0 0 0 4.2Z" fill-opacity=".1"/></g></g></g></g><g transform="translate(52 124)"><path fill-rule="evenodd" clip-rule="evenodd" d="M18 10.22C18 21.78 24.47 28 38 28c13.52 0 20-6.34 20-17.78C58 9.5 57.17 8 55 8H21c-2.05 0-3 1.38-3 2.22Z" fill="#000" fill-opacity=".8"/><mask id="mouthSmile02-a" style="mask-type:luminance" maskUnits="userSpaceOnUse" x="18" y="8" width="40" height="20"><path fill-rule="evenodd" clip-rule="evenodd" d="M18 10.22C18 21.78 24.47 28 38 28c13.52 0 20-6.34 20-17.78C58 9.5 57.17 8 55 8H21c-2.05 0-3 1.38-3 2.22Z" fill="#fff"/></mask><g mask="url(#mouthSmile02-a)"><rect x="30" y="2" width="16" height="14" rx="2" fill="#fff"/></g></g><g transform="translate(38 76)"><g fill-rule="evenodd" clip-rule="evenodd"><path d="M53 0c34.75 0 49 17.47 49 31 0 13.53-19.59 17-49 17-29.05 0-51-3.47-51-17S17.11 0 53 0Z" fill="#000" fill-opacity=".8"/><path d="M28.82 34.65c-6.53-1.35-11.24-6.34-10.52-11.14.72-4.79 6.6-7.58 13.12-6.23 6.53 1.36 11.24 6.35 10.52 11.15-.72 4.8-6.6 7.59-13.12 6.23ZM75.42 34.65c-6.52 1.36-12.4-1.43-13.12-6.23-.72-4.8 4-9.8 10.52-11.15 6.52-1.35 12.4 1.44 13.12 6.24.72 4.81-4 9.8-10.52 11.15Z" fill="#25A6F5"/></g></g></g></svg>