<svg xmlns="http://www.w3.org/2000/svg" viewBox="0 0 180 180" fill="none" shape-rendering="auto"><metadata xmlns:rdf="http://www.w3.org/1999/02/22-rdf-syntax-ns#" xmlns:xsi="http://www.w3.org/2001/XMLSchema-instance" xmlns:dc="http://purl.org/dc/elements/1.1/" xmlns:dcterms="http://purl.org/dc/terms/"><rdf:RDF><rdf:Description><dc:title>Bottts</dc:title><dc:creator>Pablo Stanley</dc:creator><dc:source xsi:type="dcterms:URI">https://bottts.com/</dc:source><dcterms:license xsi:type="dcterms:URI">https://bottts.com/</dcterms:license><dc:rights>Remix of „Bottts” (https://bottts.com/) by „Pablo Stanley”, licensed under „Free for personal and commercial use” (https://bottts.com/)</dc:rights></rdf:Description></rdf:RDF></metadata><mask id="viewboxMask"><rect width="180" height="180" rx="0" ry="0" x="0" y="0" fill="#fff" /></mask><g mask="url(#viewboxMask)"><g transform="translate(0 66)"><path d="M38 12c-2.95 11.7-19.9 6.67-23.37 18-3.46 11.35 8.03 20 17.53 20" stroke="#2A3544" stroke-width="6" opacity=".9"/><path d="M150 55c8.4 3.49 20.1-7.6 16-16.5-4.1-8.9-16-6.7-16-19.3" stroke="#2A3544" stroke-width="4" opacity=".9"/><mask id="sidesCables01-a" style="mask-type:luminance" maskUnits="userSpaceOnUse" x="21" y="6" width="138" height="58"><g fill="#fff"><rect x="21" y="35" width="16" height="22" rx="2"/><rect x="136" y="42" width="23" height="22" rx="2"/><rect x="136" y="6" width="23" height="18" rx="2"/></g></mask><g mask="url(#sidesCables01-a)"><path d="M0 0h180v76H0V0Z" fill="#43a047"/><path d="M0 0h180v76H0V0Z" fill="#fff" fill-opacity=".3"/></g></g><g transform="translate(41)"><mask id="topAntennaCrooked-a" style="mask-type:luminance" maskUnits="userSpaceOnUse" x="38" y="12" width="24" height="40"><g fill="#fff"><path d="M55.54 34.39 51 45h-3.74l4.92-10.44-6.05-10.43 3.22-11.84 2.9.8-2.9 10.62 6.2 10.68Z"/><path d="M38 39h24v13H38z"/></g></mask><g mask="url(#topAntennaCrooked-a)"><path d="M0 0h100v52H0V0Z" fill="#43a047"/><path d="M0 6h100v52H0V6Z" fill="#fff" fill-opacity=".3"/><path fill="#fff" fill-opacity=".2" d="M38 39h24v13H38z"/></g><circle cx="50" cy="8" r="8" fill="#FFE65C"/><circle cx="53" cy="5" r="3" fill="#fff"/></g><g transform="translate(25 44)"><mask id="faceRound01-a" style="mask-type:luminance" maskUnits="userSpaceOnUse" x="0" y="0" width="130" height="120"><path fill-rule="evenodd" clip-rule="evenodd" d="M66 0c58.35 0 64 40.69 64 78 0 33.31-25.47 42-64 42-37.46 0-66-8.69-66-42C0 40.69 7.65 0 66 0Z" fill="#fff"/></mask><g mask="url(#faceRound01-a)"><path d="M-4-2h138v124H-4V-2Z" fill="#43a047"/><g transform="translate(-1 -1)"></g></g></g><g transform="translate(52 124)"><rect x="4" y="5" width="68" height="22" rx="5" fill="#000" fill-opacity=".2"/><rect x="8" y="9" width="60" height="14" rx="2" fill="#fff"/><path fill="#000" fill-opacity=".1" d="M18 9h4v14h-4zM42 9h4v14h-4zM30 9h4v14h-4zM54 9h4v14h-4z"/></g><g transform="translate(38 76)"><g fill-rule="evenodd" clip-rule="evenodd"><path d="M53 0c34.75 0 49 17.47 49 31 0 13.53-19.59 17-49 17-29.05 0-51-3.47-51-17S17.11 0 53 0Z" fill="#000" fill-opacity=".8"/><path d="M28.82 34.65c-6.53-1.35-11.24-6.34-10.52-11.14.72-4.79 6.6-7.58 13.12-6.23 6.53 1.36 11.24 6.35 10.52 11.15-.72 4.8-6.6 7.59-13.12 6.23ZM75.42 34.65c-6.52 1.36-12.4-1.43-13.12-6.23-.72-4.8 4-9.8 10.52-11.15 6.52-1.35 12.4 1.44 13.12 6.24.72 4.81-4 9.8-10.52 11.15Z" fill="#25A6F5"/></g></g></g></svg>