<svg xmlns="http://www.w3.org/2000/svg" viewBox="0 0 180 180" fill="none" shape-rendering="auto"><metadata xmlns:rdf="http://www.w3.org/1999/02/22-rdf-syntax-ns#" xmlns:xsi="http://www.w3.org/2001/XMLSchema-instance" xmlns:dc="http://purl.org/dc/elements/1.1/" xmlns:dcterms="http://purl.org/dc/terms/"><rdf:RDF><rdf:Description><dc:title>Bottts</dc:title><dc:creator>Pablo Stanley</dc:creator><dc:source xsi:type="dcterms:URI">https://bottts.com/</dc:source><dcterms:license xsi:type="dcterms:URI">https://bottts.com/</dcterms:license><dc:rights>Remix of „Bottts” (https://bottts.com/) by „Pablo Stanley”, licensed under „Free for personal and commercial use” (https://bottts.com/)</dc:rights></rdf:Description></rdf:RDF></metadata><mask id="viewboxMask"><rect width="180" height="180" rx="0" ry="0" x="0" y="0" fill="#fff" /></mask><g mask="url(#viewboxMask)"><g transform="translate(0 66)"><mask id="sidesSquareAssymetric-a" style="mask-type:luminance" maskUnits="userSpaceOnUse" x="10" y="8" width="165" height="60"><g fill="#fff"><rect x="10" y="31" width="36" height="30" rx="4"/><rect x="20" y="15" width="26" height="30" rx="4"/><rect x="139" y="23" width="36" height="30" rx="4"/><rect x="134" y="8" width="36" height="60" rx="4"/></g></mask><g mask="url(#sidesSquareAssymetric-a)"><path d="M0 0h180v76H0V0Z" fill="#039be5"/><path d="M0 0h180v76H0V0Z" fill="#fff" fill-opacity=".3"/><path fill="#000" fill-opacity=".1" d="M0 47h180v29H0z"/><circle cx="161" cy="20" r="5" fill="#fff" fill-opacity=".6"/><circle cx="161" cy="36" r="5" fill="#fff" fill-opacity=".6"/></g></g><g transform="translate(41)"><mask id="topPyramid-a" style="mask-type:luminance" maskUnits="userSpaceOnUse" x="18" y="8" width="64" height="44"><path fill-rule="evenodd" clip-rule="evenodd" d="m50 8 32 44H18L50 8Z" fill="#fff"/></mask><g mask="url(#topPyramid-a)"><path d="M0 0h100v52H0V0Z" fill="#039be5"/><path d="M0 0h100v52H0V0Z" fill="#fff" fill-opacity=".3"/><path fill="#fff" fill-opacity=".8" d="M50 4h30v48H50z"/></g></g><g transform="translate(25 44)"><mask id="faceSquare02-a" style="mask-type:luminance" maskUnits="userSpaceOnUse" x="0" y="0" width="130" height="120"><path d="M0 12A12 12 0 0 1 12 0h106a12 12 0 0 1 12 12v70a38 38 0 0 1-38 38H38A38 38 0 0 1 0 82V12Z" fill="#fff"/></mask><g mask="url(#faceSquare02-a)"><path d="M-2-2h134v124H-2V-2Z" fill="#039be5"/><g transform="translate(-1 -1)"><g fill-rule="evenodd" clip-rule="evenodd" fill="#000"><path d="M-9.12 122.1c4.36-30.7 13.06-4.57 33.99-9.98 9.24-2.39 1.77-12.82 8.67-17.35 5.82-3.82 13.76-.74 20.43-3.21 9.63-3.57 9.5-10.82 18.48-11.9 8.48-1.03 17.37 2.34 25.93 1.08 16.15-2.4 9.53-34.03 21.64-39.61 12.1-5.6 32.05 4.06 34.66 19.87 2.54 15.42-14.46 72.78-14.46 72.78H-9.12" fill-opacity=".2"/><path d="M35.93 122c37.67 0 41.6-14.75 60.14-21.5 18.53-6.76 34.78 10.71 41-6.27 6.24-16.98 6.2 35.95 6.2 35.95H35.94V122Z" fill-opacity=".1"/><path d="M-2 4.87C9.73 3.75 5.96 16.8 10.6 16.8c1.85 0 4.03-8.46 7.38-8.46 2.46 0 2 5.5 7.32 4.91 5-.54 4.08-4 6.6-4 5.45 0 3.39 20.2 7.74 20.2 4.36 0 5.73-14.8 7.65-20.64 2.43-7.4 16.97-11.56 6.6-14.5H-2.29" fill-opacity=".4"/></g></g></g></g><g transform="translate(52 124)"><rect x="4" y="5" width="68" height="22" rx="5" fill="#000" fill-opacity=".2"/><rect x="8" y="9" width="60" height="14" rx="2" fill="#fff"/><path fill="#000" fill-opacity=".1" d="M18 9h4v14h-4zM42 9h4v14h-4zM30 9h4v14h-4zM54 9h4v14h-4z"/></g><g transform="translate(38 76)"><path d="m18 19 12-2M20 31c0-3.31 2.9-6 7-6 3.1 0 6 2.69 6 6M86 20l-12-3M84 31c0-3.31-2.9-6-6-6-4.1 0-7 2.69-7 6" stroke="#000" stroke-width="4" stroke-linecap="round" stroke-linejoin="round"/></g></g></svg>