<svg xmlns="http://www.w3.org/2000/svg" viewBox="0 0 180 180" fill="none" shape-rendering="auto"><metadata xmlns:rdf="http://www.w3.org/1999/02/22-rdf-syntax-ns#" xmlns:xsi="http://www.w3.org/2001/XMLSchema-instance" xmlns:dc="http://purl.org/dc/elements/1.1/" xmlns:dcterms="http://purl.org/dc/terms/"><rdf:RDF><rdf:Description><dc:title>Bottts</dc:title><dc:creator>Pablo Stanley</dc:creator><dc:source xsi:type="dcterms:URI">https://bottts.com/</dc:source><dcterms:license xsi:type="dcterms:URI">https://bottts.com/</dcterms:license><dc:rights>Remix of „Bottts” (https://bottts.com/) by „Pablo Stanley”, licensed under „Free for personal and commercial use” (https://bottts.com/)</dc:rights></rdf:Description></rdf:RDF></metadata><mask id="viewboxMask"><rect width="180" height="180" rx="0" ry="0" x="0" y="0" fill="#fff" /></mask><g mask="url(#viewboxMask)"><g transform="translate(0 66)"><mask id="sidesAntenna01-a" style="mask-type:luminance" maskUnits="userSpaceOnUse" x="6" y="11" width="156" height="51"><g fill="#fff"><rect x="6" y="31" width="36" height="14" rx="4"/><rect x="18" y="14" width="36" height="48" rx="4"/><rect x="126" y="28" width="36" height="24" rx="4"/><path d="M11 11h2v20h-2z"/></g></mask><g mask="url(#sidesAntenna01-a)"><path d="M0 0h180v76H0V0Z" fill="#6d4c41"/><path fill="#fff" fill-opacity=".3" d="M0 0h180v76H0z"/><path fill="#000" fill-opacity=".1" d="M0 38h180v38H0z"/></g><path fill="#fff" fill-opacity=".4" d="M11 11h2v20h-2z"/><circle cx="12" cy="8" r="4" fill="#FFEA8F"/><circle cx="13" cy="7" r="2" fill="#fff"/></g><g transform="translate(41)"><g filter="url(#topGlowingBulb02-a)"><path fill-rule="evenodd" clip-rule="evenodd" d="M30 33a20 20 0 1 1 40 0v11H30V33Z" fill="#fff" fill-opacity=".3"/></g><ellipse cx="50" cy="30" rx="4" ry="6" fill="#fff" fill-opacity=".6"/><path d="M50 15.5c4.93 0 9.37 2.13 12.44 5.52m2.43 3.5c.7 1.3 1.21 2.73 1.53 4.23" stroke="#fff" stroke-width="2" stroke-linecap="round"/><rect x="20" y="36" width="60" height="16" rx="1" fill="#48494B"/><defs><filter id="topGlowingBulb02-a" x="22" y="5" width="56" height="47" filterUnits="userSpaceOnUse" color-interpolation-filters="sRGB"><feFlood flood-opacity="0" result="BackgroundImageFix"/><feColorMatrix in="SourceAlpha" values="0 0 0 0 0 0 0 0 0 0 0 0 0 0 0 0 0 0 127 0" result="hardAlpha"/><feOffset/><feGaussianBlur stdDeviation="4"/><feColorMatrix values="0 0 0 0 1 0 0 0 0 1 0 0 0 0 1 0 0 0 0.5 0"/><feBlend in2="BackgroundImageFix" result="effect1_dropShadow_617_633"/><feBlend in="SourceGraphic" in2="effect1_dropShadow_617_633" result="shape"/><feColorMatrix in="SourceAlpha" values="0 0 0 0 0 0 0 0 0 0 0 0 0 0 0 0 0 0 127 0" result="hardAlpha"/><feOffset/><feGaussianBlur stdDeviation="2"/><feComposite in2="hardAlpha" operator="arithmetic" k2="-1" k3="1"/><feColorMatrix values="0 0 0 0 1 0 0 0 0 1 0 0 0 0 1 0 0 0 0.5 0"/><feBlend in2="shape" result="effect2_innerShadow_617_633"/></filter></defs></g><g transform="translate(25 44)"><mask id="faceSquare04-a" style="mask-type:luminance" maskUnits="userSpaceOnUse" x="0" y="0" width="130" height="120"><path fill-rule="evenodd" clip-rule="evenodd" d="M0 102V68.85a40 40 0 0 1 2.28-13.31L19.76 12A18 18 0 0 1 36.74 0h56.52a18 18 0 0 1 16.98 12l17.48 43.54A40 40 0 0 1 130 68.85V102a18 18 0 0 1-18 18H18a18 18 0 0 1-18-18Z" fill="#fff"/></mask><g mask="url(#faceSquare04-a)"><path d="M-2-2h134v124H-2V-2Z" fill="#6d4c41"/><g transform="translate(-1 -1)"><g fill-rule="evenodd" clip-rule="evenodd" fill="#000"><path d="M-9.12 122.1c4.36-30.7 13.06-4.57 33.99-9.98 9.24-2.39 1.77-12.82 8.67-17.35 5.82-3.82 13.76-.74 20.43-3.21 9.63-3.57 9.5-10.82 18.48-11.9 8.48-1.03 17.37 2.34 25.93 1.08 16.15-2.4 9.53-34.03 21.64-39.61 12.1-5.6 32.05 4.06 34.66 19.87 2.54 15.42-14.46 72.78-14.46 72.78H-9.12" fill-opacity=".2"/><path d="M35.93 122c37.67 0 41.6-14.75 60.14-21.5 18.53-6.76 34.78 10.71 41-6.27 6.24-16.98 6.2 35.95 6.2 35.95H35.94V122Z" fill-opacity=".1"/><path d="M-2 4.87C9.73 3.75 5.96 16.8 10.6 16.8c1.85 0 4.03-8.46 7.38-8.46 2.46 0 2 5.5 7.32 4.91 5-.54 4.08-4 6.6-4 5.45 0 3.39 20.2 7.74 20.2 4.36 0 5.73-14.8 7.65-20.64 2.43-7.4 16.97-11.56 6.6-14.5H-2.29" fill-opacity=".4"/></g></g></g></g><g transform="translate(52 124)"><rect x="4" y="5" width="68" height="22" rx="5" fill="#000" fill-opacity=".2"/><rect x="8" y="9" width="60" height="14" rx="2" fill="#000" fill-opacity=".6"/><path fill-rule="evenodd" clip-rule="evenodd" d="m20 17 6-8H14l6 8ZM32 17l6-8H26l6 8ZM44 17l6-8H38l6 8ZM56 17l6-8H50l6 8Z" fill="#E1E6E8"/></g><g transform="translate(38 76)"><rect x="8" y="10" width="88" height="36" rx="4" fill="#000" fill-opacity=".8"/><rect x="28" y="21" width="10" height="17" rx="2" fill="#5EF2B8"/><rect x="66" y="21" width="10" height="17" rx="2" fill="#5EF2B8"/><path fill-rule="evenodd" clip-rule="evenodd" d="M83 10h5L76 46h-5l12-36Z" fill="#fff" fill-opacity=".4"/></g></g></svg>