<svg xmlns="http://www.w3.org/2000/svg" viewBox="0 0 180 180" fill="none" shape-rendering="auto"><metadata xmlns:rdf="http://www.w3.org/1999/02/22-rdf-syntax-ns#" xmlns:xsi="http://www.w3.org/2001/XMLSchema-instance" xmlns:dc="http://purl.org/dc/elements/1.1/" xmlns:dcterms="http://purl.org/dc/terms/"><rdf:RDF><rdf:Description><dc:title>Bottts</dc:title><dc:creator>Pablo Stanley</dc:creator><dc:source xsi:type="dcterms:URI">https://bottts.com/</dc:source><dcterms:license xsi:type="dcterms:URI">https://bottts.com/</dcterms:license><dc:rights>Remix of „Bottts” (https://bottts.com/) by „Pablo Stanley”, licensed under „Free for personal and commercial use” (https://bottts.com/)</dc:rights></rdf:Description></rdf:RDF></metadata><mask id="viewboxMask"><rect width="180" height="180" rx="0" ry="0" x="0" y="0" fill="#fff" /></mask><g mask="url(#viewboxMask)"><g transform="translate(0 66)"><path d="M38 12c-2.95 11.7-19.9 6.67-23.37 18-3.46 11.35 8.03 20 17.53 20" stroke="#2A3544" stroke-width="6" opacity=".9"/><path d="M150 55c8.4 3.49 20.1-7.6 16-16.5-4.1-8.9-16-6.7-16-19.3" stroke="#2A3544" stroke-width="4" opacity=".9"/><mask id="sidesCables01-a" style="mask-type:luminance" maskUnits="userSpaceOnUse" x="21" y="6" width="138" height="58"><g fill="#fff"><rect x="21" y="35" width="16" height="22" rx="2"/><rect x="136" y="42" width="23" height="22" rx="2"/><rect x="136" y="6" width="23" height="18" rx="2"/></g></mask><g mask="url(#sidesCables01-a)"><path d="M0 0h180v76H0V0Z" fill="#d81b60"/><path d="M0 0h180v76H0V0Z" fill="#fff" fill-opacity=".3"/></g></g><g transform="translate(41)"><g filter="url(#topGlowingBulb01-a)"><path fill-rule="evenodd" clip-rule="evenodd" d="M32 24A16 16 0 0 1 48 8h4a16 16 0 0 1 16 16v8a8 8 0 0 1-8 8H40a8 8 0 0 1-8-8v-8Z" fill="#fff" fill-opacity=".3"/></g><path d="M49 11.5c4.93 0 9.37 2.13 12.44 5.52" stroke="#fff" stroke-width="2" stroke-linecap="round"/><path d="m49.83 29-9-9L38 22.83l10 10V40h4v-7.03l10.14-10.14L59.31 20l-9 9h-.48Z" fill="#fff" fill-opacity=".8"/><rect x="22" y="40" width="56" height="12" rx="1" fill="#48494B"/><defs><filter id="topGlowingBulb01-a" x="24" y="0" width="52" height="48" filterUnits="userSpaceOnUse" color-interpolation-filters="sRGB"><feFlood flood-opacity="0" result="BackgroundImageFix"/><feColorMatrix in="SourceAlpha" values="0 0 0 0 0 0 0 0 0 0 0 0 0 0 0 0 0 0 127 0" result="hardAlpha"/><feOffset/><feGaussianBlur stdDeviation="4"/><feColorMatrix values="0 0 0 0 1 0 0 0 0 1 0 0 0 0 1 0 0 0 0.5 0"/><feBlend in2="BackgroundImageFix" result="effect1_dropShadow_617_621"/><feBlend in="SourceGraphic" in2="effect1_dropShadow_617_621" result="shape"/><feColorMatrix in="SourceAlpha" values="0 0 0 0 0 0 0 0 0 0 0 0 0 0 0 0 0 0 127 0" result="hardAlpha"/><feOffset/><feGaussianBlur stdDeviation="2"/><feComposite in2="hardAlpha" operator="arithmetic" k2="-1" k3="1"/><feColorMatrix values="0 0 0 0 1 0 0 0 0 1 0 0 0 0 1 0 0 0 0.5 0"/><feBlend in2="shape" result="effect2_innerShadow_617_621"/></filter></defs></g><g transform="translate(25 44)"><mask id="faceRound01-a" style="mask-type:luminance" maskUnits="userSpaceOnUse" x="0" y="0" width="130" height="120"><path fill-rule="evenodd" clip-rule="evenodd" d="M66 0c58.35 0 64 40.69 64 78 0 33.31-25.47 42-64 42-37.46 0-66-8.69-66-42C0 40.69 7.65 0 66 0Z" fill="#fff"/></mask><g mask="url(#faceRound01-a)"><path d="M-4-2h138v124H-4V-2Z" fill="#d81b60"/><g transform="translate(-1 -1)"></g></g></g><g transform="translate(52 124)"><rect x="16" y="8" width="44" height="4" rx="2" fill="#000" fill-opacity=".8"/></g><g transform="translate(38 76)"><rect y="11" width="104" height="34" rx="17" fill="#000" fill-opacity=".8"/><circle cx="29" cy="28" r="13" fill="#F1EEDA"/><circle cx="75" cy="28" r="13" fill="#F1EEDA"/><rect x="24" y="23" width="10" height="10" rx="2" fill="#000" fill-opacity=".8"/><rect x="70" y="23" width="10" height="10" rx="2" fill="#000" fill-opacity=".8"/></g></g></svg>