<svg xmlns="http://www.w3.org/2000/svg" viewBox="0 0 180 180" fill="none" shape-rendering="auto"><metadata xmlns:rdf="http://www.w3.org/1999/02/22-rdf-syntax-ns#" xmlns:xsi="http://www.w3.org/2001/XMLSchema-instance" xmlns:dc="http://purl.org/dc/elements/1.1/" xmlns:dcterms="http://purl.org/dc/terms/"><rdf:RDF><rdf:Description><dc:title>Bottts</dc:title><dc:creator>Pablo Stanley</dc:creator><dc:source xsi:type="dcterms:URI">https://bottts.com/</dc:source><dcterms:license xsi:type="dcterms:URI">https://bottts.com/</dcterms:license><dc:rights>Remix of „Bottts” (https://bottts.com/) by „Pablo Stanley”, licensed under „Free for personal and commercial use” (https://bottts.com/)</dc:rights></rdf:Description></rdf:RDF></metadata><mask id="viewboxMask"><rect width="180" height="180" rx="0" ry="0" x="0" y="0" fill="#fff" /></mask><g mask="url(#viewboxMask)"><g transform="translate(0 66)"><mask id="sidesRound-a" style="mask-type:luminance" maskUnits="userSpaceOnUse" x="12" y="16" width="156" height="45"><g fill="#fff"><ellipse cx="150" cy="38.5" rx="18" ry="22.5"/><ellipse cx="18" cy="22.5" rx="18" ry="22.5" transform="matrix(-1 0 0 1 48 16)"/></g></mask><g mask="url(#sidesRound-a)"><path d="M0 0h180v76H0V0Z" fill="#1e88e5"/><path d="M0 0h180v76H0V0Z" fill="#fff" fill-opacity=".3"/><path fill="#000" fill-opacity=".2" d="M20 0h140v76H20z"/></g></g><g transform="translate(41)"><mask id="topAntenna-a" style="mask-type:luminance" maskUnits="userSpaceOnUse" x="38" y="5" width="24" height="47"><path d="M38 38c0-1.1.9-2 2-2h20a2 2 0 0 1 2 2v14H38V38ZM48 5h4v31h-4z" fill="#fff"/></mask><g mask="url(#topAntenna-a)"><path d="M0 0h100v52H0V0Z" fill="#1e88e5"/><path d="M0 3h100v52H0V3Z" fill="#fff" fill-opacity=".3"/><path fill="#fff" fill-opacity=".2" d="M38 36h24v16H38z"/></g><circle cx="50" cy="8" r="8" fill="#FFE65C"/><circle cx="53" cy="5" r="3" fill="#fff"/></g><g transform="translate(25 44)"><mask id="faceSquare02-a" style="mask-type:luminance" maskUnits="userSpaceOnUse" x="0" y="0" width="130" height="120"><path d="M0 12A12 12 0 0 1 12 0h106a12 12 0 0 1 12 12v70a38 38 0 0 1-38 38H38A38 38 0 0 1 0 82V12Z" fill="#fff"/></mask><g mask="url(#faceSquare02-a)"><path d="M-2-2h134v124H-2V-2Z" fill="#1e88e5"/><g transform="translate(-1 -1)"><path d="M29.47 34.03c-.1 0-.19-.06-.26-.12-.08-.07-.14-.12-.13.14.01.5.67-.05.4-.02ZM9.33 48.92s.2-.56.03-.74c-.17.17-.18.42-.03.74ZM7.5 52c.06 0 .57-.28.48-.43-.12-.18-.49.34-.49.42ZM22.9 59.14c-.13-.11-.53-.45-.28-.5.14-.03.5.36.32.54v-.01h-.01l-.03-.03ZM26.33 108.46c.13-.02.66-.36.34-.45-.21-.04-.6.5-.34.46ZM52.63 96.34c-.05.05-.2.09-.34.12-.15.04-.26.07-.16.1.19.06.84.16.5-.22ZM4.76 43.63ZM5.1 71.63l.06-.1c1.02 0-.68.19-.07.1ZM80.53 109.92c.09-.02.1-.02.1-.11-.07.01-.08.02-.1.1ZM29.17 117.78c.08-.02.09-.03.1-.11-.08.01-.09.02-.1.1ZM9.01 49.75c.08-.02.09-.03.1-.12-.08.02-.09.03-.1.12ZM65.84 48.74c.02.09.03.1.1.1 0-.08-.01-.09-.1-.1ZM107.28 76.91c-.08.02-.09.03-.1.12.08-.02.09-.03.1-.12Z" fill="#000" fill-opacity=".2"/></g></g></g><g transform="translate(52 124)"><g fill="#000" fill-opacity=".6"><rect x="28" y="10" width="6" height="14" rx="2"/><rect x="14" y="10" width="6" height="14" rx="2"/><rect x="42" y="10" width="6" height="14" rx="2"/><rect x="56" y="10" width="6" height="14" rx="2"/></g></g><g transform="translate(38 76)"><circle cx="28" cy="24" r="18" fill="#000" fill-opacity=".2"/><circle cx="74" cy="24" r="18" fill="#000" fill-opacity=".2"/><circle cx="28" cy="24" r="15" fill="#F1EEDA"/><circle cx="74" cy="24" r="15" fill="#F1EEDA"/><rect x="26" y="15" width="10" height="10" rx="2" fill="#000" fill-opacity=".8"/><rect x="74" y="15" width="10" height="10" rx="2" fill="#000" fill-opacity=".8"/></g></g></svg>